<svg width="66" height="66" viewBox="0 0 66 66" fill="none" xmlns="http://www.w3.org/2000/svg">
<g clip-path="url(#clip0_88_2046)">
<path d="M50.4668 0L36.825 7.99013L50.4668 15.9803L64.1086 7.99013L50.4668 0ZM15.5332 0L1.89144 7.99013L15.5332 15.9803L29.175 7.99013L15.5332 0ZM17.4668 35.3086L31.0664 27.3432V11.363L17.4668 19.3283V35.3086ZM33 30.6914L19.3582 38.6814L33 46.6717L46.6418 38.6814L33 30.6914ZM34.9336 27.3432L48.5332 35.3086V19.3283L34.9336 11.363V27.3432ZM34.9336 66L48.5332 58.0345V42.0544L34.9336 50.0198V66ZM17.4668 58.0345L31.0664 66V50.0198L17.4668 42.0544V58.0345ZM52.4004 19.3283V35.3086L66 27.3432V11.363L52.4004 19.3283ZM0 27.3432L13.5996 35.3086V19.3283L0 11.363V27.3432Z" fill="#50C6FB"/>
</g>
<defs>
<clipPath id="clip0_88_2046">
<rect width="66" height="66" fill="white"/>
</clipPath>
</defs>
</svg>
