<svg width="66" height="66" viewBox="0 0 66 66" fill="none" xmlns="http://www.w3.org/2000/svg">
<circle cx="32.8074" cy="32.8074" r="32.8074" fill="url(#paint0_linear_61_463)"/>
<mask id="mask0_61_463" style="mask-type:alpha" maskUnits="userSpaceOnUse" x="15" y="15" width="36" height="36">
<rect x="15.1421" y="15.1418" width="35.3311" height="35.3311" fill="#D9D9D9"/>
</mask>
<g mask="url(#mask0_61_463)">
<path d="M32.1535 40.8758C30.0529 40.6965 28.2873 39.8406 26.8567 38.3081C25.4261 36.7755 24.7108 34.942 24.7108 32.8075C24.7108 30.5584 25.498 28.6467 27.0723 27.0723C28.6467 25.498 30.5584 24.7108 32.8074 24.7108C34.942 24.7108 36.7755 25.4237 38.3081 26.8496C39.8406 28.2755 40.6965 30.0387 40.8758 32.1393L38.5346 31.4457C38.2164 30.1208 37.5311 29.0351 36.4787 28.1886C35.4263 27.3422 34.2025 26.9189 32.8074 26.9189C31.1881 26.9189 29.8019 27.4955 28.6487 28.6487C27.4955 29.8019 26.9189 31.1881 26.9189 32.8075C26.9189 34.206 27.3445 35.4327 28.1957 36.4878C29.0469 37.5428 30.1303 38.2298 31.4457 38.5488L32.1535 40.8758ZM32.8074 46.7926C30.8728 46.7926 29.0548 46.4256 27.3532 45.6915C25.6517 44.9574 24.1716 43.9611 22.9129 42.7027C21.6543 41.4442 20.6578 39.9644 19.9236 38.2632C19.1894 36.5619 18.8223 34.7442 18.8223 32.8099C18.8223 30.8756 19.1893 29.0575 19.9234 27.3555C20.6575 25.6535 21.6538 24.173 22.9122 22.914C24.1707 21.655 25.6505 20.6583 27.3517 19.9239C29.053 19.1895 30.8707 18.8223 32.805 18.8223C34.7393 18.8223 36.5574 19.1894 38.2594 19.9236C39.9614 20.6578 41.4419 21.6543 42.7009 22.9129C43.9599 24.1716 44.9566 25.6517 45.691 27.3533C46.4254 29.0548 46.7926 30.8728 46.7926 32.8075V33.3567C46.7926 33.5397 46.7728 33.7228 46.7332 33.9059L44.5845 33.2491V32.8075C44.5845 29.5197 43.4436 26.7349 41.1618 24.4531C38.88 22.1713 36.0952 21.0304 32.8074 21.0304C29.5197 21.0304 26.7349 22.1713 24.4531 24.4531C22.1713 26.7349 21.0304 29.5197 21.0304 32.8075C21.0304 36.0952 22.1713 38.88 24.4531 41.1618C26.7349 43.4436 29.5197 44.5845 32.8074 44.5845H33.2491L33.92 46.7332C33.7346 46.7728 33.5492 46.7926 33.3637 46.7926H32.8074ZM44.3183 46.5321L38.1155 40.3152L37.1955 43.1122C37.0799 43.4274 36.8605 43.5788 36.537 43.5666C36.2135 43.5543 35.9998 43.3906 35.896 43.0754L33.184 34.0333C33.1047 33.7823 33.1637 33.5581 33.3609 33.3609C33.5581 33.1637 33.7823 33.1047 34.0333 33.184L43.0754 35.896C43.3906 35.9998 43.5543 36.2135 43.5666 36.537C43.5788 36.8605 43.4274 37.0799 43.1122 37.1955L40.3152 38.1155L46.5321 44.3183C46.6699 44.4527 46.7388 44.6094 46.7388 44.7885C46.7388 44.9676 46.6699 45.1261 46.5321 45.2639L45.2639 46.5321C45.1295 46.6699 44.9728 46.7388 44.7937 46.7388C44.6146 46.7388 44.4561 46.6699 44.3183 46.5321Z" fill="white"/>
</g>
<defs>
<linearGradient id="paint0_linear_61_463" x1="32.8074" y1="0" x2="32.8074" y2="65.6149" gradientUnits="userSpaceOnUse">
<stop stop-color="#50C6FB"/>
<stop offset="1" stop-color="#02162A"/>
</linearGradient>
</defs>
</svg>
