<svg width="74" height="74" viewBox="0 0 74 74" fill="none" xmlns="http://www.w3.org/2000/svg">
<g clip-path="url(#clip0_88_2043)">
<path fill-rule="evenodd" clip-rule="evenodd" d="M73.7534 32.5962L68.7931 11.5172C67.4572 5.83876 62.2232 0 54.2523 0H19.7474C13.9137 0 7.03158 3.75838 5.20615 11.5174L0.245848 32.5961C-1.1006 38.318 3.24255 43.8073 9.12829 43.8073C11.6294 43.8073 13.9819 42.475 15.2675 40.3314L19.0885 33.9641C19.7418 32.8744 20.9363 32.198 22.2066 32.198H51.7921C53.0624 32.198 54.2575 32.875 54.9108 33.9646L58.7312 40.3308C60.0174 42.475 62.3699 43.8075 64.8737 43.8075C70.7504 43.8075 75.101 38.3237 73.7534 32.5962ZM27.7124 18.2668H25.2363V20.7431C25.2363 21.9398 24.2659 22.9105 23.0683 22.9105C21.8716 22.9105 20.9009 21.9399 20.9009 20.7431V18.2668H18.4245C17.2278 18.2668 16.2571 17.2963 16.2571 16.0994C16.2571 14.9019 17.2277 13.9315 18.4245 13.9315H20.9008V11.4552C20.9008 10.2584 21.8713 9.28785 23.0682 9.28785C24.2657 9.28785 25.2361 10.2584 25.2361 11.4552V13.9313H27.7124C28.9092 13.9313 29.8798 14.9017 29.8798 16.0993C29.8798 17.296 28.9092 18.2668 27.7124 18.2668ZM46.2869 18.2668C45.0905 18.2668 44.1195 17.2957 44.1195 16.0994C44.1195 14.9024 45.0911 13.9315 46.2869 13.9315C47.4838 13.9315 48.4549 14.9024 48.4549 16.0994C48.4549 17.2957 47.4838 18.2668 46.2869 18.2668ZM50.9311 22.9105C49.7347 22.9105 48.7632 21.9392 48.7632 20.7431C48.7632 19.5467 49.7347 18.5751 50.9311 18.5751C52.1275 18.5751 53.0985 19.5467 53.0985 20.7431C53.0985 21.9394 52.1274 22.9105 50.9311 22.9105ZM50.9311 13.6232C49.7347 13.6232 48.7632 12.6521 48.7632 11.4552C48.7632 10.2588 49.7347 9.28785 50.9311 9.28785C52.1275 9.28785 53.0985 10.2588 53.0985 11.4552C53.0985 12.6521 52.1274 13.6232 50.9311 13.6232ZM55.5748 18.2668C54.3783 18.2668 53.4068 17.2957 53.4068 16.0994C53.4068 14.9024 54.3783 13.9315 55.5748 13.9315C56.771 13.9315 57.7421 14.9024 57.7421 16.0994C57.7421 17.2957 56.7709 18.2668 55.5748 18.2668Z" fill="#50C6FB"/>
</g>
<defs>
<clipPath id="clip0_88_2043">
<rect width="74" height="74" fill="white"/>
</clipPath>
</defs>
</svg>
