<svg width="30" height="23" viewBox="0 0 30 23" fill="none" xmlns="http://www.w3.org/2000/svg">
<path d="M24.9609 2.54297C28.1836 7.32812 29.7949 12.6992 29.209 18.9004C29.209 18.9004 29.209 18.9492 29.1602 18.9492C27.0117 20.5605 24.5703 21.7812 21.9824 22.5625C21.9336 22.5625 21.8848 22.5625 21.8848 22.5625C21.3477 21.7812 20.8594 21 20.4199 20.1699V20.1211C20.4199 20.0723 20.4199 20.0723 20.4688 20.0234C21.25 19.7305 21.9824 19.3887 22.7148 18.9492C22.7637 18.9492 22.7637 18.9492 22.7637 18.9004C22.7637 18.8516 22.7637 18.8516 22.7148 18.8027C22.5684 18.7051 22.4219 18.6074 22.2754 18.4609H22.2266H22.1777C17.5391 20.6094 12.4609 20.6094 7.77344 18.4609C7.72461 18.4609 7.72461 18.4609 7.72461 18.4609C7.67578 18.4609 7.67578 18.4609 7.67578 18.4609C7.5293 18.6074 7.38281 18.7051 7.23633 18.8027C7.1875 18.8516 7.1875 18.8516 7.1875 18.9004C7.1875 18.9492 7.1875 18.9492 7.23633 18.9492C7.91992 19.3887 8.70117 19.7305 9.48242 20.0234C9.48242 20.0723 9.53125 20.0723 9.53125 20.1211V20.1699C9.0918 21 8.60352 21.7812 8.06641 22.5625C8.01758 22.5625 8.01758 22.5625 7.96875 22.5625C5.33203 21.7812 2.89062 20.5605 0.791016 18.9492C0.742188 18.9492 0.742188 18.9004 0.742188 18.9004C0.253906 13.5293 1.2793 8.10938 4.99023 2.54297C4.99023 2.54297 4.99023 2.54297 5.03906 2.54297C6.8457 1.71289 8.84766 1.07812 10.8496 0.736328C10.8496 0.736328 10.8496 0.736328 10.8984 0.736328H10.9473C11.2402 1.22461 11.4844 1.76172 11.6797 2.25C12.7539 2.10352 13.8281 2.00586 14.9512 2.00586C16.0742 2.00586 17.1973 2.10352 18.2715 2.25C18.4668 1.76172 18.7109 1.22461 19.0039 0.736328L19.0527 0.6875C19.0527 0.6875 19.0527 0.736328 19.1016 0.736328C21.1035 1.07812 23.1055 1.71289 24.9121 2.54297C24.9609 2.54297 24.9609 2.54297 24.9609 2.54297ZM10.2148 15.6289C11.6309 15.6289 12.8027 14.3105 12.8027 12.748C12.8027 11.1367 11.6797 9.86719 10.2148 9.86719C8.79883 9.86719 7.62695 11.1367 7.62695 12.748C7.62695 14.3105 8.79883 15.6289 10.2148 15.6289ZM19.7363 15.6289C21.2012 15.6289 22.3242 14.3105 22.3242 12.748C22.373 11.1367 21.2012 9.86719 19.7363 9.86719C18.3203 9.86719 17.1973 11.1367 17.1973 12.748C17.1973 14.3105 18.3203 15.6289 19.7363 15.6289Z" fill="#50C6FB"/>
</svg>
