<svg width="50" height="71" viewBox="0 0 50 71" fill="none" xmlns="http://www.w3.org/2000/svg">
<g clip-path="url(#clip0_88_2042)">
<path d="M48.0469 23.0469H6.68383L13.5358 16.2281C14.3003 15.4672 14.3033 14.2306 13.5423 13.466C12.7814 12.7014 11.5447 12.6985 10.7801 13.4594L0.574646 23.6156L0.572889 23.6175C-0.189709 24.3784 -0.19215 25.619 0.572693 26.3825L0.574451 26.3844L10.7799 36.5406C11.5444 37.3014 12.7811 37.2987 13.5421 36.534C14.3031 35.7694 14.3001 34.5328 13.5356 33.7719L6.68383 26.9531H48.0469C49.1256 26.9531 50 26.0787 50 25C50 23.9213 49.1256 23.0469 48.0469 23.0469Z" fill="#50C6FB"/>
</g>
<g clip-path="url(#clip1_88_2042)">
<path d="M1.95309 44.0469H43.3162L36.4642 37.2281C35.6997 36.4672 35.6967 35.2306 36.4577 34.466C37.2186 33.7014 38.4553 33.6985 39.2199 34.4594L49.4254 44.6156L49.4271 44.6175C50.1897 45.3784 50.1922 46.619 49.4273 47.3825L49.4255 47.3844L39.2201 57.5406C38.4556 58.3014 37.2189 58.2987 36.4579 57.534C35.6969 56.7694 35.6999 55.5328 36.4644 54.7719L43.3162 47.9531H1.95309C0.874374 47.9531 -3.8147e-05 47.0787 -3.8147e-05 46C-3.8147e-05 44.9213 0.874374 44.0469 1.95309 44.0469Z" fill="#50C6FB"/>
</g>
<defs>
<clipPath id="clip0_88_2042">
<rect width="50" height="50" fill="white"/>
</clipPath>
<clipPath id="clip1_88_2042">
<rect width="50" height="50" fill="white" transform="matrix(-1 0 0 1 50 21)"/>
</clipPath>
</defs>
</svg>
