<svg width="66" height="67" viewBox="0 0 66 67" fill="none" xmlns="http://www.w3.org/2000/svg">
<circle cx="32.8074" cy="33.7366" r="32.8074" fill="url(#paint0_linear_61_445)"/>
<mask id="mask0_61_445" style="mask-type:alpha" maskUnits="userSpaceOnUse" x="11" y="14" width="43" height="43">
<rect x="11.7769" y="14.3887" width="42.0608" height="42.0608" fill="#D9D9D9"/>
</mask>
<g mask="url(#mask0_61_445)">
<path d="M30.2798 49.1361H35.3351C35.5463 49.1361 35.7283 49.0597 35.8811 48.9069C36.0339 48.7541 36.1103 48.5721 36.1103 48.3609C36.1103 48.1497 36.0339 47.9677 35.8811 47.8149C35.7283 47.6622 35.5463 47.5858 35.3351 47.5858H30.2798C30.0686 47.5858 29.8866 47.6622 29.7338 47.8149C29.581 47.9677 29.5046 48.1497 29.5046 48.3609C29.5046 48.5721 29.581 48.7541 29.7338 48.9069C29.8866 49.0597 30.0686 49.1361 30.2798 49.1361ZM24.5841 53.8207C23.6988 53.8207 22.9495 53.514 22.3361 52.9006C21.7227 52.2872 21.416 51.5379 21.416 50.6526V20.1856C21.416 19.3004 21.7227 18.551 22.3361 17.9377C22.9495 17.3243 23.6988 17.0176 24.5841 17.0176H41.0308C41.9161 17.0176 42.6654 17.3243 43.2788 17.9377C43.8922 18.551 44.1989 19.3004 44.1989 20.1856V50.6526C44.1989 51.5379 43.8922 52.2872 43.2788 52.9006C42.6654 53.514 41.9161 53.8207 41.0308 53.8207H24.5841ZM24.0448 45.5299V50.6526C24.0448 50.7875 24.1009 50.9111 24.2133 51.0234C24.3256 51.1358 24.4492 51.1919 24.5841 51.1919H41.0308C41.1656 51.1919 41.2892 51.1358 41.4016 51.0234C41.5139 50.9111 41.5701 50.7875 41.5701 50.6526V45.5299H24.0448ZM24.0448 42.9011H41.5701V24.4658H24.0448V42.9011ZM24.0448 21.837H41.5701V20.1856C41.5701 20.0508 41.5139 19.9272 41.4016 19.8148C41.2892 19.7025 41.1656 19.6463 41.0308 19.6463H24.5841C24.4492 19.6463 24.3256 19.7025 24.2133 19.8148C24.1009 19.9272 24.0448 20.0508 24.0448 20.1856V21.837Z" fill="white"/>
</g>
<defs>
<linearGradient id="paint0_linear_61_445" x1="32.8074" y1="0.929199" x2="32.8074" y2="66.5441" gradientUnits="userSpaceOnUse">
<stop stop-color="#50C6FB"/>
<stop offset="1" stop-color="#02162A"/>
</linearGradient>
</defs>
</svg>
