<svg width="66" height="66" viewBox="0 0 66 66" fill="none" xmlns="http://www.w3.org/2000/svg">
<circle cx="32.8074" cy="32.8072" r="32.8074" fill="url(#paint0_linear_61_454)"/>
<mask id="mask0_61_454" style="mask-type:alpha" maskUnits="userSpaceOnUse" x="12" y="12" width="41" height="41">
<rect x="12.6182" y="12.6182" width="40.3784" height="40.3784" fill="#D9D9D9"/>
</mask>
<g mask="url(#mask0_61_454)">
<path d="M18.9275 45.8461C18.563 45.4816 18.3807 45.061 18.3807 44.5843C18.3807 44.1076 18.563 43.687 18.9275 43.3225L29.1062 33.1438C29.2745 32.9755 29.4567 32.8563 29.653 32.7862C29.8493 32.7161 30.0596 32.6811 30.2839 32.6811C30.5082 32.6811 30.7186 32.7161 30.9148 32.7862C31.1111 32.8563 31.2934 32.9755 31.4616 33.1438L37.0137 38.6958L47.7812 26.5823C48.0897 26.2177 48.4892 26.0355 48.98 26.0355C49.4707 26.0355 49.8843 26.2037 50.2207 26.5402C50.5292 26.8487 50.6904 27.2202 50.7044 27.6548C50.7185 28.0894 50.5713 28.475 50.2628 28.8115L38.1914 42.3971C38.0231 42.5934 37.8338 42.7406 37.6235 42.8388C37.4132 42.9369 37.1959 42.986 36.9716 42.986C36.7473 42.986 36.53 42.9439 36.3196 42.8598C36.1093 42.7757 35.9201 42.6495 35.7518 42.4813L30.2839 37.0133L21.4512 45.8461C21.0866 46.2106 20.666 46.3929 20.1893 46.3929C19.7126 46.3929 19.292 46.2106 18.9275 45.8461ZM19.3481 34.9944C19.2079 34.9944 19.0677 34.9594 18.9275 34.8893C18.7873 34.8192 18.6751 34.7 18.591 34.5318L17.7498 32.7231L15.9412 31.8819C15.7729 31.7978 15.6538 31.6856 15.5837 31.5454C15.5136 31.4052 15.4785 31.265 15.4785 31.1248C15.4785 30.9846 15.5136 30.8444 15.5837 30.7042C15.6538 30.564 15.7729 30.4519 15.9412 30.3677L17.7498 29.5265L18.591 27.7179C18.6751 27.5497 18.7873 27.4305 18.9275 27.3604C19.0677 27.2903 19.2079 27.2552 19.3481 27.2552C19.4883 27.2552 19.6285 27.2903 19.7687 27.3604C19.9089 27.4305 20.0211 27.5497 20.1052 27.7179L20.9464 29.5265L22.755 30.3677C23.0635 30.5079 23.2177 30.7603 23.2177 31.1248C23.2177 31.4894 23.0635 31.7417 22.755 31.8819L20.9464 32.7231L20.1052 34.5318C20.0211 34.7 19.9089 34.8192 19.7687 34.8893C19.6285 34.9594 19.4883 34.9944 19.3481 34.9944ZM37.8549 31.6296C37.7147 31.6296 37.5745 31.5945 37.4343 31.5244C37.2941 31.4543 37.1819 31.3351 37.0978 31.1669L36.2566 29.3583L34.4479 28.5171C34.2797 28.4329 34.1605 28.3208 34.0904 28.1806C34.0203 28.0404 33.9853 27.9002 33.9853 27.76C33.9853 27.6198 34.0203 27.4796 34.0904 27.3394C34.1605 27.1992 34.2797 27.087 34.4479 27.0029L36.2566 26.1617L37.0978 24.353C37.1819 24.1848 37.2941 24.0656 37.4343 23.9955C37.5745 23.9254 37.7147 23.8904 37.8549 23.8904C37.9951 23.8904 38.1353 23.9254 38.2755 23.9955C38.4157 24.0656 38.5278 24.1848 38.612 24.353L39.4532 26.1617L41.2618 27.0029C41.43 27.087 41.5492 27.1992 41.6193 27.3394C41.6894 27.4796 41.7245 27.6198 41.7245 27.76C41.7245 27.9002 41.6894 28.0404 41.6193 28.1806C41.5492 28.3208 41.43 28.4329 41.2618 28.5171L39.4532 29.3583L38.612 31.1669C38.5278 31.3351 38.4157 31.4543 38.2755 31.5244C38.1353 31.5945 37.9951 31.6296 37.8549 31.6296ZM26.9191 26.5823C26.7789 26.5823 26.6387 26.5402 26.4984 26.4561C26.3582 26.372 26.2461 26.2458 26.162 26.0775L25.0684 23.7221L22.713 22.6286C22.5447 22.5444 22.4186 22.4323 22.3344 22.2921C22.2503 22.1519 22.2082 22.0117 22.2082 21.8715C22.2082 21.7313 22.2503 21.591 22.3344 21.4508C22.4186 21.3106 22.5447 21.1985 22.713 21.1144L25.0684 20.0208L26.162 17.6654C26.2461 17.4971 26.3582 17.3709 26.4984 17.2868C26.6387 17.2027 26.7789 17.1606 26.9191 17.1606C27.0593 17.1606 27.1995 17.2027 27.3397 17.2868C27.4799 17.3709 27.592 17.4971 27.6762 17.6654L28.7697 20.0208L31.1251 21.1144C31.2934 21.1985 31.4196 21.3106 31.5037 21.4508C31.5878 21.591 31.6299 21.7313 31.6299 21.8715C31.6299 22.0117 31.5878 22.1519 31.5037 22.2921C31.4196 22.4323 31.2934 22.5444 31.1251 22.6286L28.7697 23.7221L27.6762 26.0775C27.592 26.2458 27.4799 26.372 27.3397 26.4561C27.1995 26.5402 27.0593 26.5823 26.9191 26.5823Z" fill="white"/>
</g>
<defs>
<linearGradient id="paint0_linear_61_454" x1="32.8074" y1="-0.000244141" x2="32.8074" y2="65.6146" gradientUnits="userSpaceOnUse">
<stop stop-color="#50C6FB"/>
<stop offset="1" stop-color="#02162A"/>
</linearGradient>
</defs>
</svg>
