<svg width="66" height="66" viewBox="0 0 66 66" fill="none" xmlns="http://www.w3.org/2000/svg">
<g opacity="0.35">
<circle cx="32.8074" cy="32.8074" r="32.8074" fill="url(#paint0_linear_61_472)"/>
<mask id="mask0_61_472" style="mask-type:alpha" maskUnits="userSpaceOnUse" x="13" y="13" width="40" height="40">
<rect x="13.4595" y="13.4595" width="38.6959" height="38.6959" fill="#D9D9D9"/>
</mask>
<g mask="url(#mask0_61_472)">
<path d="M27.9086 49.0269C26.6725 49.0269 25.5769 48.6786 24.6219 47.982C23.6669 47.2853 22.9672 46.3624 22.5228 45.2131C22.1445 45.7671 21.6469 46.1934 21.0299 46.4921C20.4129 46.7908 19.7705 46.9401 19.1028 46.9401C17.8564 46.9401 16.8058 46.5086 15.9511 45.6456C15.0963 44.7826 14.6689 43.7362 14.6689 42.5063C14.6689 41.4335 15.0297 40.4619 15.7511 39.5917C16.4725 38.7214 17.3851 38.2502 18.4889 38.1778C18.03 37.661 17.6714 37.0771 17.413 36.4259C17.1546 35.7748 17.0254 35.0927 17.0254 34.3795C17.0254 33.3976 17.2724 32.4752 17.7664 31.6122C18.2605 30.7492 18.9529 30.0428 19.8438 29.493C19.9472 29.8526 20.0872 30.2381 20.264 30.6494C20.4407 31.0608 20.6355 31.4215 20.8484 31.7316C20.4102 32.0685 20.0733 32.471 19.8376 32.9393C19.602 33.4075 19.4841 33.901 19.4841 34.4198C19.4841 36.0074 20.1022 37.0094 21.3383 37.4259C22.5744 37.8424 23.7951 38.1685 25.0002 38.4041L25.5645 39.3684C25.2689 40.2283 25.0213 40.958 24.8219 41.5575C24.6224 42.1569 24.5227 42.7037 24.5227 43.1977C24.5227 44.1072 24.8503 44.9005 25.5056 45.5775C26.1609 46.2544 26.9567 46.5929 27.8931 46.5929C28.846 46.5929 29.6481 46.2482 30.2992 45.5589C30.9503 44.8695 31.4971 44.0189 31.9395 43.0071C32.3818 41.9952 32.7399 40.9229 33.0138 39.7901C33.2877 38.6574 33.5105 37.6476 33.682 36.7608C33.7523 36.4177 33.929 36.1428 34.2122 35.9361C34.4954 35.7294 34.8003 35.6777 35.1269 35.781C35.47 35.8844 35.7274 36.0926 35.8989 36.4058C36.0705 36.7189 36.1129 37.0523 36.026 37.4057C35.7945 38.5695 35.5036 39.8294 35.1532 41.1854C34.8028 42.5414 34.3274 43.8003 33.7269 44.9619C33.1265 46.1236 32.3565 47.0916 31.417 47.8657C30.4775 48.6398 29.308 49.0269 27.9086 49.0269ZM19.1028 44.5217C19.663 44.5217 20.139 44.3258 20.5307 43.9341C20.9224 43.5424 21.1183 43.0665 21.1183 42.5063C21.1183 41.9461 20.9224 41.4701 20.5307 41.0784C20.139 40.6867 19.663 40.4908 19.1028 40.4908C18.5426 40.4908 18.0667 40.6867 17.675 41.0784C17.2833 41.4701 17.0874 41.9461 17.0874 42.5063C17.0874 43.0665 17.2833 43.5424 17.675 43.9341C18.0667 44.3258 18.5426 44.5217 19.1028 44.5217ZM30.5565 37.1081C30.2898 37.3747 29.9725 37.4905 29.6046 37.4554C29.2367 37.4202 28.9111 37.2693 28.6279 37.0027C26.6105 35.1733 24.9888 33.516 23.7631 32.0308C22.5373 30.5456 21.9244 28.9369 21.9244 27.2047C21.9244 25.5717 22.4835 24.1961 23.6018 23.0778C24.7201 21.9595 26.0957 21.4003 27.7287 21.4003C27.9293 21.4003 28.1086 21.4122 28.2667 21.436C28.4249 21.4598 28.5835 21.4871 28.7427 21.5182C28.6249 21.2598 28.5339 20.9988 28.4698 20.7353C28.4058 20.4717 28.3737 20.1921 28.3737 19.8965C28.3737 18.6666 28.8052 17.6201 29.6682 16.7571C30.5312 15.8941 31.5777 15.4626 32.8076 15.4626C34.0375 15.4626 35.084 15.8941 35.947 16.7571C36.81 17.6201 37.2415 18.6666 37.2415 19.8965C37.2415 20.1921 37.2094 20.4675 37.1454 20.7228C37.0813 20.9781 36.9903 21.235 36.8725 21.4933C37.0317 21.4623 37.1903 21.4391 37.3484 21.4236C37.5066 21.4081 37.6859 21.4003 37.8864 21.4003C39.3024 21.4003 40.5204 21.8323 41.5405 22.6964C42.5606 23.5604 43.2091 24.6446 43.4861 25.9489C43.1161 25.8889 42.7012 25.859 42.2413 25.859C41.7813 25.859 41.3581 25.8807 40.9716 25.9241C40.7318 25.306 40.3401 24.8006 39.7964 24.4079C39.2528 24.0151 38.6161 23.8188 37.8864 23.8188C36.9149 23.8188 36.149 24.0864 35.5889 24.6218C35.0287 25.1572 34.2814 25.9644 33.3471 27.0434H32.2278C31.2666 25.921 30.5059 25.1029 29.9457 24.5892C29.3855 24.0756 28.6465 23.8188 27.7287 23.8188C26.7551 23.8188 25.9474 24.1397 25.3056 24.7815C24.6637 25.4234 24.3428 26.2311 24.3428 27.2047C24.3428 28.3643 24.8761 29.5788 25.9428 30.848C27.0094 32.1171 28.4739 33.6023 30.3364 35.3036C30.6195 35.5537 30.7896 35.8544 30.8464 36.2058C30.9033 36.5572 30.8066 36.858 30.5565 37.1081ZM32.8076 21.912C33.3678 21.912 33.8437 21.7161 34.2355 21.3244C34.6272 20.9327 34.823 20.4567 34.823 19.8965C34.823 19.3363 34.6272 18.8604 34.2355 18.4686C33.8437 18.0769 33.3678 17.8811 32.8076 17.8811C32.2474 17.8811 31.7715 18.0769 31.3797 18.4686C30.988 18.8604 30.7921 19.3363 30.7921 19.8965C30.7921 20.4567 30.988 20.9327 31.3797 21.3244C31.7715 21.7161 32.2474 21.912 32.8076 21.912ZM37.6353 49.0424C37.1474 49.0424 36.6663 48.9824 36.1919 48.8626C35.7175 48.7427 35.2581 48.5494 34.8137 48.2827C35.037 47.9996 35.2602 47.6647 35.4835 47.2782C35.7067 46.8916 35.9082 46.5351 36.088 46.2085C36.3526 46.3552 36.6198 46.4586 36.8896 46.5185C37.1593 46.5785 37.4265 46.6084 37.6911 46.6084C38.644 46.6084 39.4507 46.27 40.1111 45.593C40.7716 44.916 41.1018 44.1093 41.1018 43.1729C41.1018 42.6624 41.002 42.1141 40.8026 41.528C40.6031 40.942 40.3556 40.219 40.06 39.3591L40.6398 38.3949C41.8718 38.1592 43.0991 37.8305 44.3218 37.4089C45.5445 36.9871 46.1558 35.9825 46.1558 34.395C46.1558 33.2064 45.7285 32.3341 44.8737 31.7781C44.019 31.222 43.0696 30.944 42.0258 30.944C41.0646 30.944 39.953 31.1026 38.691 31.4199C37.4291 31.7372 35.9898 32.1563 34.3734 32.6772C34.0199 32.7806 33.6799 32.7656 33.3533 32.6323C33.0267 32.4989 32.8117 32.2555 32.7084 31.9021C32.605 31.559 32.6567 31.2334 32.8634 30.9254C33.0701 30.6174 33.345 30.4117 33.6882 30.3084C35.3501 29.7813 36.8534 29.3472 38.198 29.0061C39.5427 28.6651 40.7958 28.4945 41.9575 28.4945C43.698 28.4945 45.2359 29.0092 46.5713 30.0386C47.9066 31.068 48.5742 32.5202 48.5742 34.395C48.5742 35.1082 48.4476 35.7826 48.1944 36.4182C47.9412 37.0538 47.5852 37.6404 47.1263 38.1778C48.2301 38.2605 49.1427 38.7318 49.8641 39.5917C50.5855 40.4516 50.9462 41.4231 50.9462 42.5063C50.9462 43.7258 50.5189 44.7697 49.6641 45.6379C48.8094 46.5061 47.7588 46.9401 46.5124 46.9401C45.8447 46.9401 45.2023 46.7908 44.5853 46.4921C43.9683 46.1934 43.4706 45.7671 43.0924 45.2131C42.648 46.3624 41.9431 47.2879 40.9778 47.9897C40.0124 48.6915 38.8983 49.0424 37.6353 49.0424ZM46.5527 44.5217C47.1129 44.5217 47.5821 44.3258 47.9604 43.9341C48.3386 43.5424 48.5278 43.0665 48.5278 42.5063C48.5278 41.9461 48.3319 41.4634 47.9402 41.0582C47.5485 40.6531 47.0725 40.4505 46.5124 40.4505C45.9522 40.4505 45.4762 40.6464 45.0845 41.0381C44.6928 41.4298 44.4969 41.9058 44.4969 42.466C44.4969 43.0261 44.6995 43.5088 45.1046 43.914C45.5098 44.3191 45.9925 44.5217 46.5527 44.5217Z" fill="white"/>
</g>
</g>
<defs>
<linearGradient id="paint0_linear_61_472" x1="32.8074" y1="0" x2="32.8074" y2="65.6149" gradientUnits="userSpaceOnUse">
<stop stop-color="#50C6FB"/>
<stop offset="1" stop-color="#02162A"/>
</linearGradient>
</defs>
</svg>
