<svg width="25" height="21" viewBox="0 0 25 21" fill="none" xmlns="http://www.w3.org/2000/svg">
<path d="M22.4121 5.54688C22.4121 5.79102 22.4121 5.98633 22.4121 6.23047C22.4121 13.0176 17.2852 20.7812 7.86133 20.7812C4.93164 20.7812 2.24609 19.9512 0 18.4863C0.390625 18.5352 0.78125 18.584 1.2207 18.584C3.61328 18.584 5.81055 17.7539 7.56836 16.3867C5.32227 16.3379 3.41797 14.873 2.7832 12.8223C3.125 12.8711 3.41797 12.9199 3.75977 12.9199C4.19922 12.9199 4.6875 12.8223 5.07812 12.7246C2.73438 12.2363 0.976562 10.1855 0.976562 7.69531V7.64648C1.66016 8.03711 2.49023 8.23242 3.32031 8.28125C1.9043 7.35352 1.02539 5.79102 1.02539 4.0332C1.02539 3.05664 1.26953 2.17773 1.70898 1.44531C4.24805 4.52148 8.05664 6.57227 12.3047 6.81641C12.207 6.42578 12.1582 6.03516 12.1582 5.64453C12.1582 2.8125 14.4531 0.517578 17.2852 0.517578C18.75 0.517578 20.0684 1.10352 21.0449 2.12891C22.168 1.88477 23.291 1.44531 24.2676 0.859375C23.877 2.08008 23.0957 3.05664 22.0215 3.69141C23.0469 3.59375 24.0723 3.30078 24.9512 2.91016C24.2676 3.93555 23.3887 4.81445 22.4121 5.54688Z" fill="#50C6FB"/>
</svg>
